<?xml version="1.0" encoding="UTF-8"?><svg width="300" height="300" viewBox="0 0 79.375 79.375" xmlns="http://www.w3.org/2000/svg"><defs><path id="a" d="M 39.9875,17.3875 A 22.3,22.3 0 1,1 39.987,17.3875"/></defs><rect fill="white" width="79.375" height="79.375"/><g><path fill="#000" d="m 68.2,33.31 v 3.42 c 0,0 0,0 0.01,0 1.56,0 3.03,1.28 3.03,2.87 0,1.58 -1.47,2.87 -3.03,2.87 0,0 0,0 -0.01,0 v 3.42 c 0,0 0,0 0.01,0 3.49,0 6.53,-2.82 6.53,-6.3 0,-3.47 -3.04,-6.29 -6.53,-6.29 0,0 0,0 -0.01,0 z"/><g transform="translate(-0.33,0.02)"><path fill="#000004" d="m 40.17,10.53 c -16.08,0 -29.13,13.05 -29.13,29.13 0,16.08 13.05,29.13 29.13,29.13 14.65,0 26.78,-10.83 28.83,-24.92 h -2.28 C 64.69,56.71 53.57,66.54 40.17,66.54 c -14.84,0 -26.88,-12.04 -26.88,-26.88 0,-14.84 12.04,-26.88 26.88,-26.88 13.36,0 24.44,9.76 26.52,22.53 h 2.28 C 66.87,21.3 54.77,10.53 40.17,10.53 Z"/><text font-family="FreeSans" font-size="4.4" font-weight="600"><animateTransform attributeName="transform" type="rotate" values="0 39.9875 39.6875;360 39.9875 39.6875" dur="5s" repeatCount="indefinite"/><textPath href="#a">the object of knowledge by revelation is nothing than obediance</textPath></text><rect fill="white" x="50" y="34" width="18" height="10"/><rect fill="#000" width="46.73" height="3.43" x="22.13" y="33.28"/><rect fill="#000" width="11.58" height="3.42" x="57.27" y="42.45"/><path fill="#000" d="m 47.76,37.7 c -2.06,0 -3.73,1.67 -3.73,3.73 0,0 0,0 0,0.01 0.71,-1.17 2.1,-1.97 3.71,-1.97 1.63,0 3.05,0.83 3.74,2.04 0,-0.03 0,-0.05 0,-0.08 0,-2.06 -1.67,-3.73 -3.73,-3.73 z"/><path fill="#000" d="m 25.25,42.45 c 1.1,6.79 7.24,12 14.65,12 7.41,0 13.55,-5.21 14.65,-12 z m 4.72,3.3 h 19.85 c -1.91,3.23 -5.63,5.44 -9.92,5.44 -4.29,0 -8.02,-2.2 -9.92,-5.44 z"/><path fill="#000004" d="m 39.97,18.52 c -10.64,0 -19.44,7.92 -20.82,18.19 h 3.54 c 1.35,-8.32 8.58,-14.69 17.28,-14.69 8.7,0 15.93,6.36 17.28,14.69 h 3.53 C 59.4,26.44 50.61,18.52 39.97,18.52 Z M 18.97,38.64 c -0.01,0.3 -0.02,0.59 -0.02,0.89 0,11.6 9.41,21.01 21.01,21.01 10.61,0 19.39,-7.88 20.81,-18.1 h -3.54 c -1.39,8.28 -8.59,14.6 -17.27,14.6 -9.67,0 -17.51,-7.85 -17.51,-17.51 0,-0.3 0.01,-0.6 0.02,-0.89 z"/><path fill="#000" d="m 39.04,17.79 -0.41,0.88 2.87,0 -0.42,-0.87 z"/><text transform="matrix(0.15451728,0,0,0.15451728,56.407185,35.001987)" font-size="45" fill="#000"><tspan x="-170.8457" y="47.162109">⚈</tspan></text></g></g></svg>